User Type,Username,Date,Text
,XTerion,2013-03-24T10:52Z,Thank you!
,amirrazorrr,2013-03-25T17:56Z,"thanks VIFY, would you please upload Star Wars: Episode I - The Phantom Menace 3D please?
i am waiting for it and i can't find it anywhere"
,RBSNLA,2013-04-14T17:18Z,"V=10 A=10 M=10 Thanks!SEEDING!!!

General
Complete name                            : Star.Wars.Episode.1.The.Phantom.Menace.1999.1080p.BrRip.x264.BOKUTOX.YIFY.mp4
Format                                   : MPEG-4
Format profile                           : Base Media
Codec ID                                 : isom
File size                                : 1.80 GiB
Duration                                 : 2h 16mn
Overall bit rate mode                    : Variable
Overall bit rate                         : 1 893 Kbps
Encoded date                             : UTC 2013-02-22 08:21:45
Tagged date                              : UTC 2013-02-22 08:21:45

Video
ID                                       : 1
Format                                   : AVC
Format/Info                              : Advanced Video Codec
Format profile                           : High@L4.0
Format settings, CABAC                   : Yes
Format settings, ReFrames                : 5 frames
Codec ID                                 : avc1
Codec ID/Info                            : Advanced Video Coding
Duration                                 : 2h 16mn
Bit rate                                 : 1 798 Kbps
Maximum bit rate                         : 15.3 Mbps
Width                                    : 1 920 pixels
Height                                   : 816 pixels
Display aspect ratio                     : 2.35:1
Frame rate mode                          : Constant
Frame rate                               : 23.976 fps
Color space                              : YUV
Chroma subsampling                       : 4:2:0
Bit depth                                : 8 bits
Scan type                                : Progressive
Bits/(Pixel*Frame)                       : 0.048
Stream size                              : 1.71 GiB (95%)
Title                                    : Wars.Episode.1.The.Phantom.Menace.1999.1080p.BluRay.xnHD.x264-NhaNc3.mkv.264#trackID=1:fps=23.976@GPAC0.5.1-DEV-rev4283
Writing library                          : x264 core 129 r2245 bc13772
Encoding settings                        : cabac=1 / ref=5 / deblock=1:0:0 / analyse=0x3:0x133 / me=umh / subme=9 / psy=1 / psy_rd=1.00:0.00 / mixed_ref=1 / me_range=16 / chroma_me=1 / trellis=2 / 8x8dct=1 / cqm=0 / deadzone=21,11 / fast_pskip=1 / chroma_qp_offset=-2 / threads=12 / lookahead_threads=2 / sliced_threads=0 / nr=0 / decimate=1 / interlaced=0 / bluray_compat=0 / constrained_intra=0 / bframes=8 / b_pyramid=2 / b_adapt=2 / b_bias=0 / direct=3 / weightb=1 / open_gop=0 / weightp=2 / keyint=240 / keyint_min=23 / scenecut=40 / intra_refresh=0 / rc_lookahead=60 / rc=2pass / mbtree=1 / bitrate=1798 / ratetol=1.0 / qcomp=0.60 / qpmin=10 / qpmax=51 / qpstep=4 / cplxblur=20.0 / qblur=0.5 / ip_ratio=1.40 / aq=1:1.00
Encoded date                             : UTC 2013-02-22 08:21:45
Tagged date                              : UTC 2013-02-22 08:23:02

Audio
ID                                       : 2
Format                                   : AAC
Format/Info                              : Advanced Audio Codec
Format profile                           : LC
Codec ID                                 : 40
Duration                                 : 2h 16mn
Bit rate mode                            : Variable
Bit rate                                 : 92.0 Kbps
Maximum bit rate                         : 97.6 Kbps
Channel(s)                               : 2 channels
Channel positions                        : Front: L R
Sampling rate                            : 48.0 KHz
Compression mode                         : Lossy
Stream size                              : 89.6 MiB (5%)
Language                                 : English
Encoded date                             : UTC 2013-02-21 19:15:55
Tagged date                              : UTC 2013-02-22 08:23:02
"
,grrrr716,2013-05-17T22:14Z,"Are the subtitles in this torrent for the whole movie, or just that parts where they aren't speaking english?"
,djnforce9,2013-05-20T16:42Z,Going to grab all of these for my nephew who has yet to see Star Wars. Disney decided to be really stupid again and not sell them this year.
,Octarin,2013-05-25T10:06Z,"Thanks YIFY, once again excellent!"
